<?xml version="1.0" encoding="utf-8"?>
<!-- Generator: Adobe Illustrator 16.0.0, SVG Export Plug-In . SVG Version: 6.00 Build 0)  -->
<svg version="1.2" baseProfile="tiny" id="图层_2"
	 xmlns="http://www.w3.org/2000/svg" xmlns:xlink="http://www.w3.org/1999/xlink" x="0px" y="0px" width="2800px" height="1280px"
	 viewBox="0 0 2800 1280" xml:space="preserve">
<path fill="#A6A8AB" d="M2670.005,34.536l-4.37,1043.045c0,0-43.513,155.275-219.473,160.83H393.915
	c0,0-184.807,9.2-258.022-215.904l-3.681-781.22c0,0,43.29-184.729,256.428-206.765L2670.005,34.536z"/>
<path fill-rule="evenodd" fill="#FFFFFF" d="M2558.409,447.042l103.321-2.236c-0.029,189.05,0.103,631.97,0.103,631.97
	c-30.64,0-93.822,0.605-93.822,0.605s-1.064,70.744-0.914,108.455h-16.475l-704.124-184.466l-179.29,1.056l-232.638,32.34
	c0,0-200.158-0.609-205.695-0.004c0,0-125.857-8.476-147.665-8.476l-684.27,1.677c0-6.788-0.007-6.792-6.995-6.792
	c-82.326-0.005-168.041-0.005-250.366-0.005c-8.126,0-7.652-0.108-9.422-8.2c0,0,2.273-46.66,2.053-66.399
	c-0.006-0.492,0.16-0.985,0.34-2.033c2.188-0.138,4.466-0.405,6.747-0.405c62.292-0.023,121.191-0.215,183.478,0.222
	c8.353,0.056,13.93-3.039,19.289-8.427c6.252-6.281,12.896-7.665,19.326-13.766c10.3-9.771,20.732-19.396,30.984-29.212
	c1.132-1.089,2.048-3.025,2.051-4.573c0.091-40.911,0.049-76.497,0.016-117.404c-0.002-0.979-0.157-1.959-0.286-3.454
	c-24.67,0-49.158,0-74.014,0c0-13.406,0-35.296,0-48.813c1.643-0.08,3.413-0.234,5.183-0.239
	c11.447-0.024,22.901-0.206,34.341,0.084c4.55,0.118,6.053-1.453,5.612-5.809c-0.288-2.823-0.056-5.701-0.056-9.235
	c9.719,0,19.199,0,29.286,0c0-8.023,0-11.681,0-19.033c0.003-27.604,0.091-55.215-0.109-82.824
	c-0.024-3.127-1.166-6.526-2.678-9.318c-7.619-14.067-15.479-28.009-23.372-41.929c-3.367-5.931-5.744-8.301-9.41-14.05
	c-0.661-1.036-2.225-2.116-3.381-2.125c-16.48-0.139-26.288,0.412-43.427,0.412c0,13.163-1.197,25.395-1.197,38.54
	c-27.341,0-64.05-0.807-91.114-0.807l1.465-90.919c0,0,76.073-0.216,107.05,0l0.291-275.766l110.803-0.295l0.293,155.236
	l68.051,2.401l243.924,0.958l-0.717-162.529l916.243,1.336l0.202,30.408l-155.737,0.297v43.521l294.156,0.765l-0.028-98.826h47.658
	v-27.229h-90.432l-3.197-104.894h798.564V447.042z"/>
<path fill-rule="evenodd" fill="#FFFFFF" d="M1289.92,199.663c-1.359-0.16-1.86-0.27-2.362-0.27
	c-95.768-0.014-191.538-0.002-287.307-0.094c-4.269-0.002-4.918,1.908-4.912,5.556c0.087,44.602,0.113,89.207-0.033,133.808
	c-0.013,4.482,1.447,5.762,5.801,5.75c45.781-0.119,91.561-0.042,137.343-0.159c2.132-0.007,4.503-0.975,6.348-2.147
	c9.302-5.901,18.571-11.867,27.653-18.098c13.198-9.056,26.25-18.325,39.322-27.566c10.746-7.6,21.379-15.353,32.145-22.929
	c14.455-10.174,29.002-20.219,43.448-30.408c1.102-0.78,2.429-2.257,2.443-3.422C1289.981,226.433,1289.92,213.182,1289.92,199.663z
	"/>
<path fill-rule="evenodd" fill="#E78A3A" stroke="#EAE9E9" stroke-width="4.2141" stroke-miterlimit="10" d="M326.407,400.429
	c0,26.459,0,52.652,0,79.303c-64.41,0-128.744,0-193.471,0c0-26.194,0-52.52,0-79.303
	C197.145,400.429,261.464,400.429,326.407,400.429z"/>
<path fill-rule="evenodd" fill="#E78A3A" stroke="#EAE9E9" stroke-width="4.2141" stroke-miterlimit="10" d="M132.819,343.707
	c64.464,0,128.659,0,193.354,0c0,16.883,0,33.764,0,51.135c-64.229,0-128.662,0-193.354,0
	C132.819,377.805,132.819,360.909,132.819,343.707z"/>
<path fill-rule="evenodd" fill="#E78A3A" stroke="#EAE9E9" stroke-width="4.2141" stroke-miterlimit="10" d="M132.762,338.381
	c0-15.929,0-31.35,0-47.138c64.521,0,128.826,0,193.497,0c0,15.692,0,31.225,0,47.138
	C261.807,338.381,197.494,338.381,132.762,338.381z"/>
<path fill-rule="evenodd" fill="#E78A3A" stroke="#EAE9E9" stroke-width="4.2141" stroke-miterlimit="10" d="M326.397,241.729
	c0,14.875,0,29.283,0,44.096c-64.561,0-128.896,0-194.186,0c0.398-8.44,0.706-16.743,1.209-25.037
	c0.293-4.827,0.816-9.645,1.402-14.448c0.366-3.005,1.331-5.063,5.3-5.054c61.084,0.147,122.17,0.125,183.257,0.155
	C324.201,241.441,325.019,241.594,326.397,241.729z"/>
<path fill-rule="evenodd" fill="#E78A3A" stroke="#EAE9E9" stroke-width="4.2141" stroke-miterlimit="10" d="M136.849,236.371
	c2.508-15.017,6.541-29.277,13.508-42.564c0.631-1.205,3.352-1.834,5.11-1.848c15.812-0.124,31.624-0.042,47.436-0.042
	c39.025,0.007,78.05,0.002,117.074,0.002c1.983,0,3.966,0,6.29,0c0,15.045,0,29.566,0,44.452
	C263.255,236.371,200.424,236.371,136.849,236.371z"/>
<path fill-rule="evenodd" fill="#E78A3A" stroke="#EAE9E9" stroke-width="4.2141" stroke-miterlimit="10" d="M326.333,147.468
	c0,13.613,0,26.34,0,39.414c-57.446,0-114.599,0-172.096,0c3.809-11.346,10.982-20.646,16.686-30.771
	c4.163-7.396,9.318-8.924,17.291-8.847c43.758,0.424,87.521,0.204,131.283,0.204C321.646,147.468,323.798,147.468,326.333,147.468z"
	/>
<path fill-rule="evenodd" fill="#D15C44" stroke="#EAE9E9" stroke-width="4.2141" stroke-miterlimit="10" d="M2637.547,247.513
	c0,14.561,0,28.291,0,42.682c-10.666,0-21.048-0.002-31.428,0c-7.68,0.002-7.685,0.005-7.685,7.689c0,37.712,0,75.421,0,113.133
	c0,2.176,0,4.356,0,7.025c-157.595,0-314.884,0-472.62,0c0-25.212,0-50.511,0-76.64c2.124,0,4.238,0,6.348,0
	c39.567,0,79.129-0.038,118.69,0.059c4.075,0.009,7.112-1.212,10.423-3.753c8.434-6.462,17.437-12.186,26.162-18.269
	c4.631-3.226,9.203-6.545,13.741-9.896c4.421-3.258,8.581-6.92,13.223-9.81c2.672-1.667,2.935-3.601,2.931-6.227
	c-0.053-22.055-0.034-44.107-0.029-66.162c0.014-58.082,0.029-116.162,0.047-174.244c0-1.976,0-3.955,0-6.271
	c81.293,0,162.03,0,243.708,0c0,3.045-0.028,6.151,0.009,9.257c0.146,12.221-1.616,10.483,10.816,10.591
	c8.566,0.073,17.133,0.014,26.552,0.014c0,2.485,0,4.59,0,6.696c0,55.723,0,111.448,0,167.173c0,6.937,0.009,6.943,6.906,6.949
	C2615.914,247.516,2626.49,247.513,2637.547,247.513z"/>
<path fill-rule="evenodd" fill="#D15C44" stroke="#EAE9E9" stroke-width="4.2141" stroke-miterlimit="10" d="M2052.876,151.739
	c0,2.93,0,5.08,0,7.229c0,58.075-0.057,116.148,0.099,174.22c0.014,4.904-0.994,6.597-6.315,6.564
	c-39.051-0.247-78.106-0.223-117.157-0.021c-4.932,0.025-6.217-1.391-6.146-6.222c0.268-19.173,0.107-38.354,0.107-58.231
	c-39.275,0-78.217,0-117.647,0c0-32.355,0-64.013,0-96.325c15.884,0,31.605,0,47.658,0c0-9.295,0-17.939,0-27.229
	c-30.817,0-61.353,0-92.241,0c0-35.216,0-69.784,0-104.737c183.587,0,366.969,0,550.861,0c0.117,1.66,0.332,3.273,0.332,4.886
	c0.029,18.179-0.042,36.358,0.075,54.539c0.02,3.001-0.965,4.494-3.563,6.271c-9.48,6.482-18.571,13.539-27.808,20.381
	c-7.9,5.854-15.716,11.833-23.775,17.462c-1.575,1.102-4.103,1.163-6.189,1.165c-63.627,0.057-127.26,0.047-190.887,0.047
	C2058.113,151.739,2055.946,151.739,2052.876,151.739z"/>
<path fill-rule="evenodd" fill="#D15C44" stroke="#EAE9E9" stroke-width="4.2141" stroke-miterlimit="10" d="M2312.479,117.965
	c0,7.364,0,14.731,0,22.097c0,49.832-0.043,99.666,0.08,149.5c0.009,4.203-1.37,6.488-5.008,8.776
	c-6.601,4.16-12.519,9.394-18.876,13.963c-8.116,5.83-16.817,10.926-24.464,17.301c-7.282,6.073-15.126,7.201-24.142,7.117
	c-35.858-0.333-71.721-0.136-107.578-0.138c-6.978,0-6.985-0.009-6.985-7.197c0-36.198,0.014-72.393-0.011-108.59
	c-0.009-8.311,0.864-7.427-7.688-7.448c-18.014-0.044-36.026-0.138-54.039,0.075c-4.436,0.052-6.151-0.97-6.049-5.807
	c0.319-14.64,0.311-29.296,0.01-43.936c-0.104-4.914,1.458-6.187,6.269-6.175c60.097,0.152,120.199-0.112,180.296,0.329
	c9.021,0.065,15.96-2.497,22.805-7.788c10.549-8.158,21.544-15.735,32.262-23.67c3.971-2.938,7.699-6.201,11.534-9.314
	C2311.423,117.363,2311.948,117.663,2312.479,117.965z"/>
<path fill-rule="evenodd" fill="#D15C44" stroke="#EAE9E9" stroke-width="4.2141" stroke-miterlimit="10" d="M2125.867,423.604
	c105.088,0,209.711,0,314.658,0c0,12.371,0,24.406,0,37.07c-14.154,0-28.197,0-42.856,0c0,20.037,0,39.467,0,59.518
	c-11.276,0-21.952,0-33.426,0c0,34.302,0,67.988,0,102.008c-10.812,0-20.83,0-31.296,0c0-25.708,0-51.33,0-77.714
	c3.912,0,7.729-0.091,11.53,0.03c3.01,0.094,4.224-1.144,4.21-4.175c-0.07-15.32-0.104-30.638,0.02-45.955
	c0.033-3.976-2.213-4.212-5.219-4.198c-13.635,0.059-27.27,0.023-40.902,0.023c-36.866,0-73.727-0.002-110.593,0.003
	c-6.69,0.002-6.704,0.016-6.704,6.678c-0.01,28.617-0.006,57.232-0.006,85.849c0,1.819,0,3.641,0,6.071c5.768,0,11.065,0,16.763,0
	c0,11.429,0,22.238,0,33.389c-25.394,0-50.561,0-76.179,0C2125.867,556.091,2125.867,490.068,2125.867,423.604z"/>
<path fill-rule="evenodd" fill="#D15C44" stroke="#EAE9E9" stroke-width="4.2141" stroke-miterlimit="10" d="M2524.44,622.413
	c-51.845,0-103.297,0-155.212,0c0-32.226,0-64.394,0-97.213c8.954,0,17.829-0.249,26.682,0.099c4.825,0.189,6.39-1.273,6.297-6.208
	c-0.29-15.814-0.107-31.638-0.107-47.459c0-1.807,0-3.615,0-5.715c41.052,0,81.514,0,122.341,0
	C2524.44,518.002,2524.44,569.911,2524.44,622.413z"/>
<path fill-rule="evenodd" fill="#D15C44" stroke="#EAE9E9" stroke-width="4.2141" stroke-miterlimit="10" d="M2327.937,622.411
	c-40.522,0-80.184,0-120.796,0c0-2.276,0-4.534,0-6.792c-0.004-8.917-0.121-17.835,0.058-26.748
	c0.065-3.535-1.219-4.845-4.712-4.658c-3.85,0.208-7.723,0.047-12.05,0.047c0-29.742,0-59.207,0-89.021c50.94,0,101.829,0,153.131,0
	c0,14.575,0,29.114,0,44.363c-4.946,0-10.042,0-15.631,0C2327.937,567.473,2327.937,594.647,2327.937,622.411z"/>
<path fill-rule="evenodd" fill="#D15C44" stroke="#EAE9E9" stroke-width="4.2141" stroke-miterlimit="10" d="M2589.188,741.764
	c0,18.548,0,36.673,0,55.633c-2.794,0-5.409,0-8.026,0c-10.437,0-20.878,0.128-31.31-0.064c-3.788-0.071-4.993,1.284-4.919,4.988
	c0.193,9.561,0.065,19.125,0.065,29.421c-8.48,0-16.498-0.006-24.511,0c-6.799,0.005-6.803,0.009-6.803,7.013
	c-0.004,58.246-0.004,116.497-0.004,174.741c0,2.151,0,4.298,0,6.794c-22.807,0-45.096,0-67.76,0c0-72.236,0-144.359,0-217.031
	c1.786-0.084,3.564-0.244,5.346-0.248c15.486-0.019,30.977-0.136,46.463,0.069c4.2,0.056,5.523-1.284,5.471-5.475
	c-0.196-16.669-0.079-33.335-0.079-49.999c0-1.819,0-3.644,0-5.842C2531.924,741.764,2560.271,741.764,2589.188,741.764z"/>
<path fill-rule="evenodd" fill="#D15C44" stroke="#EAE9E9" stroke-width="4.2141" stroke-miterlimit="10" d="M1529.446,337.31
	c-10.011-6.62-19.185-12.659-28.328-18.742c-13.23-8.798-26.4-17.69-39.692-26.389c-2.536-1.658-3.614-3.449-3.601-6.525
	c0.126-25.581,0.145-51.163,0.046-76.746c-0.009-3.444,0.967-4.762,4.563-4.668c12.668,0.333,10.193-1.519,10.442,10.313
	c0.111,5.551,0.22,11.116-0.043,16.658c-0.197,4.276,1.57,5.572,5.649,5.473c8.749-0.208,17.507,0.078,26.256-0.124
	c3.558-0.083,4.638,1.174,4.58,4.651c-0.169,11.104,0.076,22.216-0.121,33.321c-0.076,4.143,1.331,5.856,5.537,5.577
	c3.685-0.246,7.403,0.037,11.103-0.063c2.513-0.068,3.651,0.804,3.643,3.479C1529.414,301.018,1529.446,318.511,1529.446,337.31z"/>
<path fill-rule="evenodd" fill="#D15C44" stroke="#EAE9E9" stroke-width="4.2141" stroke-miterlimit="10" d="M1665.708,204.648
	c0,9.012,0,17.544,0,26.471c-62.445,0-124.629,0-187.263,0c0-8.664,0-17.322,0-26.471
	C1540.643,204.648,1602.953,204.648,1665.708,204.648z"/>
<path fill-rule="evenodd" fill="#D15C44" stroke="#EAE9E9" stroke-width="4.2141" stroke-miterlimit="10" d="M1805.984,280.068
	c11.102-0.002,22.205,0.089,33.306-0.059c3.25-0.042,4.408,0.998,4.384,4.32c-0.111,16.986-0.093,33.978,0.043,50.967
	c0.029,3.392-1.313,4.275-4.473,4.262c-22.374-0.089-44.743-0.082-67.117-0.003c-2.986,0.009-4.181-0.945-4.162-4.053
	c0.117-17.158,0.136-34.313,0.043-51.471c-0.02-3.146,1.204-4.039,4.168-4.008C1783.447,280.136,1794.713,280.068,1805.984,280.068z
	"/>
<path fill-rule="evenodd" fill="#D15C44" stroke="#EAE9E9" stroke-width="4.2141" stroke-miterlimit="10" d="M1725.937,339.522
	c-10.595,0.003-21.196-0.12-31.793,0.068c-3.623,0.066-5.049-0.909-5.007-4.791c0.196-16.82,0.178-33.643,0.07-50.463
	c-0.022-3.313,1.121-4.342,4.374-4.325c21.699,0.108,43.402,0.094,65.101,0.014c2.954-0.011,4.187,0.849,4.173,4.001
	c-0.099,17.158-0.099,34.315,0.051,51.471c0.033,3.624-1.739,4.086-4.674,4.06C1747.466,339.469,1736.701,339.522,1725.937,339.522z
	"/>
<path fill-rule="evenodd" fill="#D15C44" stroke="#EAE9E9" stroke-width="4.2141" stroke-miterlimit="10" d="M1646.973,339.525
	c-10.432,0-20.858-0.11-31.286,0.059c-3.685,0.061-5.42-0.703-5.358-4.958c0.243-16.649,0.202-33.305,0.079-49.956
	c-0.023-3.444,0.976-4.694,4.559-4.672c21.528,0.136,43.059,0.138,64.588,0c3.624-0.023,4.543,1.308,4.521,4.705
	c-0.118,16.654-0.118,33.308,0.06,49.958c0.039,3.713-1.073,5.012-4.866,4.937C1668.507,339.387,1657.738,339.522,1646.973,339.525z
	"/>
<path fill-rule="evenodd" fill="#D15C44" stroke="#EAE9E9" stroke-width="4.2141" stroke-miterlimit="10" d="M1569.866,339.52
	c-10.09,0.002-20.185-0.122-30.273,0.07c-3.625,0.068-5.054-0.909-5.008-4.794c0.192-16.817,0.179-33.64,0.065-50.46
	c-0.019-3.31,1.121-4.342,4.38-4.325c20.685,0.108,41.376,0.094,62.066,0.014c2.958-0.011,4.187,0.849,4.173,4.001
	c-0.095,17.156-0.076,34.313,0.041,51.471c0.019,3.101-1.161,4.095-4.158,4.062C1590.726,339.447,1580.298,339.518,1569.866,339.52z
	"/>
<path fill-rule="evenodd" fill="#D15C44" stroke="#EAE9E9" stroke-width="4.2141" stroke-miterlimit="10" d="M1883.429,339.511
	c-10.095-0.002-20.188-0.096-30.282,0.054c-3.273,0.047-4.403-1.083-4.376-4.367c0.132-16.989,0.16-33.983,0.037-50.971
	c-0.022-3.446,1.37-4.222,4.493-4.21c20.188,0.082,40.378,0.084,60.561-0.059c3.531-0.026,4.646,1.168,4.614,4.651
	c-0.132,16.823-0.15,33.647,0.009,50.467c0.032,3.683-1.436,4.543-4.778,4.492C1903.617,339.417,1893.522,339.513,1883.429,339.511z
	"/>
<path fill-rule="evenodd" fill="#D15C44" stroke="#EAE9E9" stroke-width="4.2141" stroke-miterlimit="10" d="M1452.916,286.09
	c-1.762-1.048-3.192-1.808-4.529-2.708c-18.394-12.396-36.721-24.891-55.198-37.147c-3.202-2.122-4.426-4.393-4.318-8.205
	c0.268-9.405,0.211-18.83,0.024-28.239c-0.07-3.535,0.703-5.099,4.693-5.059c18.491,0.192,36.983,0.115,55.474,0.056
	c2.721-0.009,4.408,0.382,4.398,3.763c-0.089,25.05-0.028,50.099-0.037,75.147C1453.423,284.304,1453.174,284.907,1452.916,286.09z"
	/>
<path fill-rule="evenodd" fill="#BD365A" stroke="#EAEAEA" stroke-width="4.6168" stroke-miterlimit="10" d="M2027.803,707.313
	c84.111,0,167.875,0,252.072,0c0,159.465,0,318.761,0,478.49c-83.878,0-167.76,0-252.072,0
	C2027.803,1026.516,2027.803,867.219,2027.803,707.313z"/>
<path fill-rule="evenodd" fill="#BD365A" stroke="#EAEAEA" stroke-width="4.6168" stroke-miterlimit="10" d="M2022.303,1185.966
	c-56.282,0-112.107,0-168.632,0c0-2.382,0-4.506,0-6.634c0-56.898,0-113.805-0.006-170.707c0-7.25-0.004-7.255-7.167-7.255
	c-32.661-0.004-65.321,0-97.98,0c-2.013,0-4.028,0-6.526,0c0-57.907,0-115.534,0-174.089c1.768,0,3.694,0,5.621,0
	c19.865,0,39.73,0,59.595-0.004c7.01,0,7.02-0.011,7.02-6.826c0.005-35.521,0.005-71.045,0.005-106.565c0-1.998,0-3.99,0-6.405
	c69.502,0,138.583,0,208.071,0C2022.303,866.834,2022.303,1026.149,2022.303,1185.966z"/>
<path fill-rule="evenodd" fill="#BD365A" stroke="#EAEAEA" stroke-width="4.6168" stroke-miterlimit="10" d="M1724.306,1164.994
	c-2.293,0-4.262,0-6.236,0c-25.416,0-50.847-0.449-76.244,0.268c-7.815,0.222-12.256-3.113-16.747-8.233
	c-12.768-14.575-25.721-28.984-38.479-43.569c-10.217-11.679-20.171-23.584-30.387-35.258c-6.831-7.802-14.033-15.285-20.867-23.082
	c-10.345-11.791-20.48-23.76-30.777-35.591c-3.848-4.415-7.923-8.636-11.852-12.986c-5.931-6.572-11.828-13.175-18.252-20.33
	c8.687-7.814,17.15-15.404,25.59-23.02c7.454-6.723,14.807-13.568,22.396-20.133c1.599-1.379,4.046-2.509,6.104-2.514
	c67.834-0.131,135.666-0.106,203.5-0.099c1.323,0,2.641,0.171,4.351,0.287c0,20.081,0,39.988,0,60.613c-2.104,0-4.061,0-6.016,0
	c-19.527,0-39.051,0.106-58.578-0.085c-4.313-0.037-5.897,1.111-5.846,5.658c0.215,19.354,0.243,38.715-0.015,58.069
	c-0.065,4.857,1.649,5.957,6.143,5.887c15.48-0.224,30.967-0.084,46.454-0.084c1.81,0,3.614,0,5.757,0
	C1724.306,1102.254,1724.306,1133.151,1724.306,1164.994z"/>
<path fill-rule="evenodd" fill="#BD365A" stroke="#EAEAEA" stroke-width="4.6168" stroke-miterlimit="10" d="M1626.016,1164.738
	c-87.355,0-173.408,0-259.846,0c0-45.03,0-89.842,0-135.144c1.875-0.088,3.666-0.248,5.458-0.253
	c15.646-0.019,31.31-0.379,46.937,0.165c6.493,0.229,11.103-2.081,15.486-6.23c10.465-9.907,20.999-19.735,31.568-29.524
	c1.561-1.449,3.445-2.551,5.541-4.074C1522.587,1047.815,1573.88,1105.797,1626.016,1164.738z"/>
<path fill-rule="evenodd" fill="#BD365A" stroke="#EAEAEA" stroke-width="4.6168" stroke-miterlimit="10" d="M1736.571,827.854
	c0,35.872,0,71.477,0,107.593c-1.998,0.103-3.779,0.271-5.565,0.271c-66.63,0.014-133.258-0.005-199.886,0.065
	c-3.46,0-5.897-0.693-7.961-3.882c-7.332-11.322-14.835-22.553-22.593-33.584c-14.25-20.25-28.751-40.313-43.08-60.506
	c-2.104-2.968-3.811-6.212-6.085-9.958C1546.597,827.854,1641.296,827.854,1736.571,827.854z"/>
<path fill-rule="evenodd" fill="#BD365A" stroke="#EAEAEA" stroke-width="4.6168" stroke-miterlimit="10" d="M1736.388,822.341
	c-71.35,0-142.287,0-213.65,0c0-38.297,0-76.372,0-114.85c71.11,0,142.17,0,213.65,0
	C1736.388,745.599,1736.388,783.674,1736.388,822.341z"/>
<path fill-rule="evenodd" fill="#BD365A" stroke="#EAEAEA" stroke-width="4.6168" stroke-miterlimit="10" d="M2285.379,1009.106
	c2.33,0,4.313,0,6.296,0c20.859,0,41.743,0.554,62.569-0.263c8.575-0.336,13.531,3.011,18.359,9.176
	c10.812,13.813,22.087,27.265,33.134,40.896c2.724,3.363,5.187,6.94,7.961,10.255c4.759,5.688,6.217,12.008,6.122,19.485
	c-0.393,30.278-0.163,60.563-0.163,90.84c0,1.988,0,3.981,0,6.348c-44.925,0-89.391,0-134.278,0
	C2285.379,1127.182,2285.379,1068.571,2285.379,1009.106z"/>
<path fill-rule="evenodd" fill="#BD365A" stroke="#EAEAEA" stroke-width="4.6168" stroke-miterlimit="10" d="M1360.582,1164.677
	c-42.47,0-84.479,0-126.806,0c0-45.011,0-89.716,0-134.88c42.136,0,84.267,0,126.806,0
	C1360.582,1074.586,1360.582,1119.412,1360.582,1164.677z"/>
<path fill-rule="evenodd" fill="#BD365A" stroke="#EAEAEA" stroke-width="4.6168" stroke-miterlimit="10" d="M1228.66,1080.841
	c-49.684,0-98.397,0-147.449,0c0-36.355,0-72.405,0-108.835c2.094-0.094,3.896-0.243,5.7-0.243
	c25.229-0.014,50.459-0.104,75.684,0.126c2.659,0.023,5.855,1.284,7.867,3.038c16.218,14.193,32.21,28.644,48.287,42.994
	c0.615,0.549,1.397,0.899,2.053,1.403c5.069,3.891,8.492,8.066,8.074,15.438c-0.764,13.414-0.215,26.898-0.215,40.355
	C1228.66,1076.916,1228.66,1078.717,1228.66,1080.841z"/>
<path fill-rule="evenodd" fill="#BD365A" stroke="#EAEAEA" stroke-width="4.6168" stroke-miterlimit="10" d="M2424.637,1185.836
	c0-35.667,0-70.934,0-106.604c42.01,0,83.793,0,125.985,0c0,35.418,0,70.807,0,106.604
	C2508.772,1185.836,2466.988,1185.836,2424.637,1185.836z"/>
<path fill-rule="evenodd" fill="#BD365A" stroke="#EAEAEA" stroke-width="4.6168" stroke-miterlimit="10" d="M1445.776,822.157
	c0-38.371,0-76.313,0-114.662c23.825,0,47.424,0,71.428,0c0,38.127,0,76.185,0,114.662
	C1493.546,822.157,1469.955,822.157,1445.776,822.157z"/>
<path fill-rule="evenodd" fill="#BD365A" stroke="#EAEAEA" stroke-width="4.6168" stroke-miterlimit="10" d="M2285.369,707.294
	c25.928,0,51.441,0,77.359,0c0,24.178,0,48.131,0,72.489c-25.688,0-51.318,0-77.359,0
	C2285.369,755.777,2285.369,731.828,2285.369,707.294z"/>
<path fill-rule="evenodd" fill="#BD365A" stroke="#EAEAEA" stroke-width="4.6168" stroke-miterlimit="10" d="M2362.729,929.463
	c-25.927,0-51.441,0-77.359,0c0-23.842,0-47.451,0-71.477c25.684,0,51.315,0,77.359,0
	C2362.729,881.649,2362.729,905.265,2362.729,929.463z"/>
<path fill-rule="evenodd" fill="#BD365A" stroke="#EAEAEA" stroke-width="4.6168" stroke-miterlimit="10" d="M2285.196,1004.043
	c0-23.242,0-46.064,0-69.286c25.862,0,51.497,0,77.532,0c0,22.996,0,45.941,0,69.286
	C2337.037,1004.043,2311.404,1004.043,2285.196,1004.043z"/>
<path fill-rule="evenodd" fill="#BD365A" stroke="#EAEAEA" stroke-width="4.6168" stroke-miterlimit="10" d="M2362.903,785.259
	c0,22.553,0,44.7,0,67.253c-25.853,0-51.489,0-77.534,0c0-22.31,0-44.575,0-67.253
	C2311.048,785.259,2336.681,785.259,2362.903,785.259z"/>
<path fill-rule="evenodd" fill="#E78A3A" stroke="#EAE9E9" stroke-width="4.2141" stroke-miterlimit="10" d="M1220.446,500.28
	c0,39.744,0,79.083,0,118.879c-27.185,0-54.303,0-81.95,0c0-25.962,0-51.799,0-78.3c-20.086,0-39.663,0-59.551,0
	c0-13.857,0-27.05,0-40.579C1126.095,500.28,1172.975,500.28,1220.446,500.28z"/>
<path fill-rule="evenodd" fill="#E78A3A" stroke="#EAE9E9" stroke-width="4.2141" stroke-miterlimit="10" d="M977.002,545.766
	c0,24.569,0,48.758,0,73.396c-48.402,0-96.726,0-145.376,0c0-24.422,0-48.728,0-73.396
	C879.998,545.766,928.203,545.766,977.002,545.766z"/>
<path fill-rule="evenodd" fill="#E78A3A" stroke="#EAE9E9" stroke-width="4.2141" stroke-miterlimit="10" d="M1078.939,494.991
	c0-16.515,0-32.738,0-49.447c19.763,0,39.217,0,59.193,0c0-15.203,0-29.934,0-45.137c27.641,0,54.759,0,82.219,0
	c0,31.453,0,62.831,0,94.584C1173.346,494.991,1126.474,494.991,1078.939,494.991z"/>
<path fill-rule="evenodd" fill="#E78A3A" stroke="#EAE9E9" stroke-width="4.2141" stroke-miterlimit="10" d="M535.568,619.241
	c0-24.542,0-48.727,0-73.377c45.007,0,89.966,0,135.256,0c0,24.394,0,48.7,0,73.377
	C625.848,619.241,581.009,619.241,535.568,619.241z"/>
<path fill-rule="evenodd" fill="#E78A3A" stroke="#EAE9E9" stroke-width="4.2141" stroke-miterlimit="10" d="M530.572,443.268
	c0,58.853,0,116.847,0,176.009c-4.841-3.331-9.133-5.969-13.073-9.058c-10.493-8.224-20.848-16.625-31.23-24.99
	c-3.123-2.513-4.738-5.44-4.709-9.862c0.215-34.669,0.191-69.338,0.019-104.007c-0.021-3.854,1.343-5.858,4.351-8.029
	c6.343-4.583,12.514-9.49,18.243-14.814c4.082-3.791,8.231-5.881,13.878-5.326C522.018,443.584,526.055,443.268,530.572,443.268z"/>
<path fill-rule="evenodd" fill="#E78A3A" stroke="#EAE9E9" stroke-width="4.2141" stroke-miterlimit="10" d="M751.697,540.488
	c0-32.417,0-64.343,0-96.696c24.809,0,49.452,0,74.561,0c0,32.027,0,64.193,0,96.696
	C801.534,540.488,776.893,540.488,751.697,540.488z"/>
<path fill-rule="evenodd" fill="#E78A3A" stroke="#EAE9E9" stroke-width="4.2141" stroke-miterlimit="10" d="M831.671,443.607
	c23.886,0,47.396,0,71.366,0c0,32.226,0,64.395,0,96.888c-23.735,0-47.365,0-71.366,0
	C831.671,508.297,831.671,476.251,831.671,443.607z"/>
<path fill-rule="evenodd" fill="#E78A3A" stroke="#EAE9E9" stroke-width="4.2141" stroke-miterlimit="10" d="M676.109,443.607
	c23.541,0,46.716,0,70.351,0c0,32.224,0,64.39,0,96.886c-23.391,0-46.686,0-70.351,0
	C676.109,508.302,676.109,476.255,676.109,443.607z"/>
<path fill-rule="evenodd" fill="#E78A3A" stroke="#EAE9E9" stroke-width="4.2141" stroke-miterlimit="10" d="M976.951,443.725
	c0,32.393,0,64.289,0,96.642c-22.756,0-45.354,0-68.414,0c0-31.983,0-64.132,0-96.642
	C931.174,443.725,953.773,443.725,976.951,443.725z"/>
<path fill-rule="evenodd" fill="#E78A3A" stroke="#EAE9E9" stroke-width="4.2141" stroke-miterlimit="10" d="M670.89,540.641
	c-22.657,0-44.951,0-67.616,0c0-32.332,0-64.39,0-96.913c22.412,0,44.827,0,67.616,0C670.89,475.881,670.89,507.941,670.89,540.641z
	"/>
<path fill-rule="evenodd" fill="#E78A3A" stroke="#EAE9E9" stroke-width="4.2141" stroke-miterlimit="10" d="M1133.439,619.377
	c-27.585,0-54.797,0-82.471,0c0-24.477,0-48.896,0-73.65c27.435,0,54.766,0,82.471,0
	C1133.439,570.176,1133.439,594.479,1133.439,619.377z"/>
<path fill-rule="evenodd" fill="#E78A3A" stroke="#EAE9E9" stroke-width="4.2141" stroke-miterlimit="10" d="M598.23,443.657
	c0,32.374,0,64.432,0,96.879c-20.829,0-41.442,0-62.531,0c0-32.133,0-64.31,0-96.879
	C556.351,443.657,576.965,443.657,598.23,443.657z"/>
<path fill-rule="evenodd" fill="#E78A3A" stroke="#EAE9E9" stroke-width="4.2141" stroke-miterlimit="10" d="M751.87,545.639
	c24.892,0,49.409,0,74.393,0c0,24.476,0,48.898,0,73.649c-24.741,0-49.379,0-74.393,0C751.87,594.84,751.87,570.54,751.87,545.639z"
	/>
<path fill-rule="evenodd" fill="#E78A3A" stroke="#EAE9E9" stroke-width="4.2141" stroke-miterlimit="10" d="M1225.65,500.19
	c20.461,0,40.584,0,61.335,0c0.108,1.836,0.3,3.603,0.3,5.373c0.023,15.974-0.146,31.948,0.126,47.914
	c0.071,4.025-1.523,6.557-4.2,9.084c-14.122,13.349-28.146,26.8-42.249,40.171c-4.811,4.562-9.743,9-15.313,14.131
	C1225.65,577.525,1225.65,539.159,1225.65,500.19z"/>
<path fill-rule="evenodd" fill="#E78A3A" stroke="#EAE9E9" stroke-width="4.2141" stroke-miterlimit="10" d="M746.551,619.379
	c-23.55,0-46.723,0-70.355,0c0-24.483,0-48.903,0-73.654c23.402,0,46.693,0,70.355,0
	C746.551,570.181,746.551,594.483,746.551,619.379z"/>
<path fill-rule="evenodd" fill="#E78A3A" stroke="#EAE9E9" stroke-width="4.2141" stroke-miterlimit="10" d="M1045.689,545.775
	c0,24.551,0,48.735,0,73.377c-21.108,0-42.162,0-63.549,0c0-24.403,0-48.704,0-73.377
	C1003.221,545.775,1024.156,545.775,1045.689,545.775z"/>
<path fill-rule="evenodd" fill="#E78A3A" stroke="#EAE9E9" stroke-width="4.2141" stroke-miterlimit="10" d="M1287.056,445.755
	c0,16.543,0,32.62,0,49.152c-20.382,0-40.612,0-61.321,0c0-16.135,0-32.463,0-49.152
	C1245.998,445.755,1266.229,445.755,1287.056,445.755z"/>
<path fill-rule="evenodd" fill="#E78A3A" stroke="#EAE9E9" stroke-width="4.2141" stroke-miterlimit="10" d="M1225.571,440.415
	c0-13.512,0-26.694,0-40.178c20.535,0,40.761,0,61.362,0c0,13.433,0,26.603,0,40.178
	C1266.566,440.415,1246.336,440.415,1225.571,440.415z"/>
<path fill-rule="evenodd" fill="#E78A3A" stroke="#EAE9E9" stroke-width="4.2141" stroke-miterlimit="10" d="M1133.414,440.529
	c-18.239,0-36.161,0-54.708,0c0-9.937,0-19.61,0-29.915c-7.396,0-14.185,0-21.3,0c-0.204-2.075-0.299-3.546-0.499-5.005
	c-0.585-4.262,0.881-5.832,5.507-5.781c22.045,0.244,44.096,0.101,66.145,0.112c1.492,0,2.982,0.132,4.856,0.221
	C1133.414,413.552,1133.414,426.75,1133.414,440.529z"/>
<path fill-rule="evenodd" fill="#BD365A" stroke="#EAEAEA" stroke-width="4.6168" stroke-miterlimit="10" d="M1053.776,892.771
	c0,42.91,0,84.938,0,127.836c-2.036,0-3.968,0-5.902,0c-38.545,0-77.092,0-115.636,0c-6.551,0-6.559,0.017-6.559,6.739
	c-0.004,22.04-0.001,44.076-0.001,66.562c-71.177,0-142.06,0-213.26,0c0-105.932,0-211.71,0-318.016c14.919,0,29.648,0,44.897,0
	c0-22.988,0-45.461,0-68.363c76.381,0,152.238,0,228.79,0c0,61.433,0,123.077,0,185.242
	C1008.925,892.771,1031.059,892.771,1053.776,892.771z"/>
<path fill-rule="evenodd" fill="#BD365A" stroke="#EAEAEA" stroke-width="4.6168" stroke-miterlimit="10" d="M483.09,1093.903
	c0-46.094,0-91.802,0-138.331c2.133,0,4.075,0,6.016,0c24.903,0,49.808-0.111,74.709,0.099c4.684,0.037,6.083-1.368,6.001-6.024
	c-0.268-14.802-0.098-29.613-0.098-44.419c0-1.817,0-3.633,0-5.837c45.982,0,91.472,0,137.363,0c0,64.763,0,129.436,0,194.513
	C632.562,1093.903,558.129,1093.903,483.09,1093.903z"/>
<path fill-rule="evenodd" fill="#BD365A" stroke="#EAEAEA" stroke-width="4.6168" stroke-miterlimit="10" d="M991.384,707.35
	c79.133,0,157.825,0,236.91,0c0,30.94,0,61.617,0,92.875c-54.279,0-108.376,0-163.056,0c0,9.559,0,18.562,0,27.99
	c-24.868,0-49.153,0-73.854,0C991.384,788.095,991.384,747.99,991.384,707.35z"/>
<path fill-rule="evenodd" fill="#BD365A" stroke="#EAEAEA" stroke-width="4.6168" stroke-miterlimit="10" d="M483.165,846.43
	c2.527,0,4.684,0,6.838,0c43.253,0,86.508-0.08,129.764,0.107c5.026,0.019,6.613-1.219,6.587-6.437
	c-0.208-41.905-0.115-83.816-0.115-125.727c0-2.167,0-4.333,0-6.931c13.22,0,26.083,0,39.87,0c0,1.791,0,3.713,0,5.64
	c0,19.021,0.131,38.038-0.094,57.055c-0.054,4.53,1.449,5.762,5.807,5.669c11.592-0.264,23.198-0.089,35.25-0.089
	c0,39.547,0,78.785,0,118.342c-74.594,0-149.059,0-223.906,0C483.165,878.362,483.165,862.812,483.165,846.43z"/>
<path fill-rule="evenodd" fill="#BD365A" stroke="#EAEAEA" stroke-width="4.6168" stroke-miterlimit="10" d="M1087.675,1186.865
	c-52.457,0-104.424,0-156.786,0c0-29.785,0-59.313,0-89.282c52.125,0,104.213,0,156.786,0
	C1087.675,1127.135,1087.675,1156.78,1087.675,1186.865z"/>
<path fill-rule="evenodd" fill="#BD365A" stroke="#EAEAEA" stroke-width="4.6168" stroke-miterlimit="10" d="M621.338,778.231
	c0,21.068,0,41.872,0,63.125c-45.922,0-91.752,0-138.039,0c0-20.826,0-41.751,0-63.125
	C529.042,778.231,574.87,778.231,621.338,778.231z"/>
<path fill-rule="evenodd" fill="#BD365A" stroke="#EAEAEA" stroke-width="4.6168" stroke-miterlimit="10" d="M621.313,707.073
	c0,22.131,0,43.599,0,65.55c-45.921,0-91.85,0-138.43,0c0-7.412-0.687-14.854,0.338-22.045c0.407-2.874,4.405-5.43,7.098-7.745
	c10.359-8.899,21.025-17.451,31.237-26.514c6.662-5.917,13.167-9.893,22.962-9.528c23.341,0.873,46.74,0.282,70.114,0.282
	C616.642,707.073,618.648,707.073,621.313,707.073z"/>
<path fill-rule="evenodd" fill="#D15C44" stroke="#EAE9E9" stroke-width="4.2141" stroke-miterlimit="10" d="M1453.812,508.257
	c25.707,0,50.907,0,76.601,0c0.132,1.498,0.375,2.937,0.375,4.376c0.019,34.85-0.033,69.699,0.09,104.546
	c0.009,3.655-0.938,5.064-4.769,5.041c-22.556-0.129-45.118-0.054-67.678-0.082c-1.468-0.003-2.94-0.284-4.619-0.457
	C1453.812,583.826,1453.812,546.335,1453.812,508.257z"/>
<path fill-rule="evenodd" fill="#D15C44" stroke="#EAE9E9" stroke-width="4.2141" stroke-miterlimit="10" d="M1842.564,621.785
	c-2.063,0.131-4.032,0.363-6.008,0.363c-20.876,0.028-41.751-0.101-62.627,0.108c-4.647,0.047-6.368-0.985-6.331-6.085
	c0.234-34.174,0.117-68.352,0.132-102.526c0-1.646,0.141-3.294,0.229-5.27c24.93,0,49.578,0,74.605,0
	C1842.564,546.096,1842.564,583.705,1842.564,621.785z"/>
<path fill-rule="evenodd" fill="#D15C44" stroke="#EAE9E9" stroke-width="4.2141" stroke-miterlimit="10" d="M1610.389,508.259
	c24.689,0,48.883,0,73.567,0c0.132,1.491,0.375,2.929,0.375,4.368c0.019,34.85-0.033,69.7,0.089,104.547
	c0.01,3.645-0.918,5.073-4.759,5.049c-21.548-0.136-43.102-0.057-64.649-0.082c-1.473-0.002-2.944-0.284-4.623-0.458
	C1610.389,583.831,1610.389,546.342,1610.389,508.259z"/>
<path fill-rule="evenodd" fill="#D15C44" stroke="#EAE9E9" stroke-width="4.2141" stroke-miterlimit="10" d="M1762.905,508.405
	c0,37.862,0,75.347,0,113.295c-24.53,0-48.825,0-73.554,0c0-37.742,0-75.328,0-113.295
	C1713.695,508.405,1738.01,508.405,1762.905,508.405z"/>
<path fill-rule="evenodd" fill="#D15C44" stroke="#EAE9E9" stroke-width="4.2141" stroke-miterlimit="10" d="M1530.474,503.254
	c-25.693,0-50.884,0-76.644,0c-0.094-1.927-0.258-3.704-0.258-5.48c-0.014-31.629,0.079-63.257-0.112-94.886
	c-0.028-4.627,1.266-5.985,5.913-5.938c22.204,0.225,44.413,0.14,66.618,0.059c3.192-0.012,4.895,0.518,4.882,4.355
	c-0.132,32.974-0.076,65.948-0.095,98.925C1530.778,501.103,1530.618,501.914,1530.474,503.254z"/>
<path fill-rule="evenodd" fill="#D15C44" stroke="#EAE9E9" stroke-width="4.2141" stroke-miterlimit="10" d="M1847.96,508.262
	c23.48,0,46.649,0,70.454,0c0.099,1.62,0.277,3.218,0.277,4.817c0.019,34.493-0.015,68.984,0.061,103.475
	c0.004,3.23-0.215,5.601-4.332,5.581c-21.535-0.086-43.069-0.074-64.604-0.119c-0.479-0.003-0.957-0.258-1.856-0.519
	C1847.96,583.995,1847.96,546.426,1847.96,508.262z"/>
<path fill-rule="evenodd" fill="#D15C44" stroke="#EAE9E9" stroke-width="4.2141" stroke-miterlimit="10" d="M1605.175,621.785
	c-2.059,0.131-4.032,0.361-6.005,0.363c-19.189,0.028-38.385-0.11-57.575,0.108c-4.651,0.054-6.368-0.982-6.335-6.083
	c0.24-34.174,0.123-68.351,0.132-102.526c0-1.647,0.146-3.294,0.234-5.272c23.24,0,46.205,0,69.549,0
	C1605.175,546.096,1605.175,583.705,1605.175,621.785z"/>
<path fill-rule="evenodd" fill="#D15C44" stroke="#EAE9E9" stroke-width="4.2141" stroke-miterlimit="10" d="M1767.721,503.071
	c0-1.997,0-3.643,0-5.288c0-31.629,0.09-63.257-0.098-94.886c-0.028-4.614,1.241-5.999,5.901-5.95
	c21.53,0.232,43.064,0.143,64.599,0.062c3.184-0.012,4.904,0.499,4.891,4.348c-0.132,32.975-0.08,65.949-0.094,98.923
	c0,0.813-0.164,1.626-0.287,2.792C1817.842,503.071,1793.202,503.071,1767.721,503.071z"/>
<path fill-rule="evenodd" fill="#D15C44" stroke="#EAE9E9" stroke-width="4.2141" stroke-miterlimit="10" d="M1683.934,503.151
	c-24.517,0-48.818,0-73.498,0c-0.107-1.838-0.286-3.467-0.286-5.094c-0.019-31.797,0.07-63.593-0.107-95.39
	c-0.022-4.386,1.116-5.765,5.621-5.717c21.197,0.227,42.394,0.117,63.591,0.082c2.879-0.004,5.176-0.112,5.157,4.051
	c-0.146,33.479-0.108,66.957-0.14,100.435C1684.271,501.846,1684.14,502.174,1683.934,503.151z"/>
<path fill-rule="evenodd" fill="#D15C44" stroke="#EAE9E9" stroke-width="4.2141" stroke-miterlimit="10" d="M1688.932,503.079
	c0-2.019,0-3.667,0-5.314c0-31.629,0.088-63.257-0.104-94.884c-0.027-4.642,1.29-5.979,5.917-5.93
	c21.196,0.229,42.397,0.143,63.596,0.059c3.201-0.014,4.885,0.537,4.871,4.365c-0.131,32.974-0.079,65.949-0.094,98.923
	c0,0.811-0.164,1.624-0.286,2.783C1738.361,503.079,1714.062,503.079,1688.932,503.079z"/>
<path fill-rule="evenodd" fill="#D15C44" stroke="#EAE9E9" stroke-width="4.2141" stroke-miterlimit="10" d="M1918.396,503.215
	c-23.757,0-46.937,0-70.567,0c-0.107-1.819-0.29-3.439-0.295-5.059c-0.014-31.818,0.07-63.637-0.103-95.453
	c-0.024-4.346,1.041-5.809,5.593-5.755c20.029,0.24,40.064,0.132,60.098,0.083c3.409-0.01,5.682,0.37,5.663,4.841
	c-0.154,32.66-0.084,65.32-0.099,97.98C1918.686,500.826,1918.522,501.801,1918.396,503.215z"/>
<path fill-rule="evenodd" fill="#D15C44" stroke="#EAE9E9" stroke-width="4.2141" stroke-miterlimit="10" d="M1986.97,473.896
	c-21.282,0-42.089,0-63.3,0c-0.136-1.616-0.366-3.062-0.37-4.509c-0.019-22.364,0.052-44.73-0.08-67.094
	c-0.022-3.72,0.741-5.378,4.952-5.331c18.158,0.211,36.321,0.112,54.484,0.068c2.774-0.007,4.814,0.105,4.796,3.898
	c-0.132,23.541-0.079,47.084-0.103,70.625C1987.35,472.193,1987.147,472.831,1986.97,473.896z"/>
<path fill-rule="evenodd" fill="#D15C44" stroke="#EAE9E9" stroke-width="4.2141" stroke-miterlimit="10" d="M1987.025,552.671
	c-21.196,0-42.004,0-63.28,0c0-24.46,0-48.863,0-73.582c21.046,0,41.977,0,63.28,0
	C1987.025,503.524,1987.025,527.811,1987.025,552.671z"/>
<path fill-rule="evenodd" fill="#D15C44" stroke="#EAE9E9" stroke-width="4.2141" stroke-miterlimit="10" d="M1987.161,557.941
	c0,21.342,0,42.321,0,63.764c-21.159,0-42.088,0-63.449,0c0-21.232,0-42.312,0-63.764
	C1944.684,557.941,1965.623,557.941,1987.161,557.941z"/>
<path fill-rule="evenodd" fill="#D15C44" stroke="#EAE9E9" stroke-width="4.2141" stroke-miterlimit="10" d="M1605.531,449.667
	c-23.541,0-46.369,0-69.85,0c-0.099-1.578-0.28-3.172-0.286-4.765c-0.022-14.129,0.113-28.258-0.093-42.382
	c-0.056-4.006,0.858-5.61,5.246-5.563c20.01,0.216,40.026,0.08,60.041,0.117c2.209,0.005,4.97-0.717,4.961,3.123
	C1605.508,416.487,1605.531,432.779,1605.531,449.667z"/>
<path fill-rule="evenodd" fill="#D15C44" stroke="#EAE9E9" stroke-width="4.2141" stroke-miterlimit="10" d="M1535.598,503.1
	c0-16.204,0-31.971,0-48.177c23.199,0,46.271,0,69.653,0c0,16.056,0,31.941,0,48.177C1582.084,503.1,1559.13,503.1,1535.598,503.1z"
	/>
<path fill-rule="evenodd" fill="#D15C44" stroke="#EAE9E9" stroke-width="4.2141" stroke-miterlimit="10" d="M1387.254,451.695
	c20.516,0,40.658,0,61.264,0c0,17.063,0,34.079,0,51.425c-20.361,0-40.625,0-61.264,0
	C1387.254,486.083,1387.254,469.188,1387.254,451.695z"/>
<path fill-rule="evenodd" fill="#D15C44" stroke="#EAE9E9" stroke-width="4.2141" stroke-miterlimit="10" d="M1448.959,446.641
	c-20.859,0-40.992,0-61.776,0c-0.103-1.59-0.286-3.186-0.29-4.78c-0.024-13.119,0.126-26.239-0.094-39.35
	c-0.065-4.023,0.886-5.613,5.26-5.554c17.32,0.23,34.643,0.078,51.963,0.115c2.217,0.007,4.965-0.703,4.956,3.134
	C1448.936,415.486,1448.959,430.768,1448.959,446.641z"/>
<path fill-rule="evenodd" fill="#D15C44" stroke="#EAE9E9" stroke-width="4.2141" stroke-miterlimit="10" d="M1387.178,557.568
	c0-16.426,0-32.648,0-49.206c20.513,0,40.771,0,61.42,0c0,16.332,0,32.555,0,49.206
	C1428.358,557.568,1408.099,557.568,1387.178,557.568z"/>
<path fill-rule="evenodd" fill="#D15C44" stroke="#EAE9E9" stroke-width="4.2141" stroke-miterlimit="10" d="M1390.08,562.773
	c19.853,0,38.967,0,58.489,0c0,18.496,0,36.795,0,56.386C1428.742,600.044,1409.697,581.687,1390.08,562.773z"/>
<path fill-rule="evenodd" fill="#E78A3A" stroke="#EAE9E9" stroke-width="4.2141" stroke-miterlimit="10" d="M882.747,401.09
	c-44.01,0-87.686,0-131.767,0c0-66.572,0-132.907,0-199.637c44.011,0,87.658,0,131.767,0
	C882.747,267.793,882.747,334.133,882.747,401.09z"/>
<path fill-rule="evenodd" fill="#E78A3A" stroke="#EAE9E9" stroke-width="4.2141" stroke-miterlimit="10" d="M888.378,201.317
	c30.837,0,61.229,0,92.108,0c0.126,2.194,0.335,4.159,0.337,6.125c0.031,45.596,0.002,91.191,0.134,136.788
	c0.007,3.429-1.166,5.398-3.894,7.341c-13.59,9.682-27.121,19.458-40.471,29.468c-7.485,5.612-14.54,11.803-21.894,17.596
	c-1.52,1.196-3.484,2.464-5.291,2.541c-6.858,0.3-13.74,0.122-21.03,0.122C888.378,334.548,888.378,268.204,888.378,201.317z"/>
<path fill-rule="evenodd" fill="#E78A3A" stroke="#EAE9E9" stroke-width="4.2141" stroke-miterlimit="10" d="M662.087,297.338
	c13.85,0,27.236,0,40.964,0c0,34.557,0,68.806,0,103.534c-13.506,0-27.01,0-40.964,0
	C662.087,366.523,662.087,332.155,662.087,297.338z"/>
<path fill-rule="evenodd" fill="#E78A3A" stroke="#EAE9E9" stroke-width="4.2141" stroke-miterlimit="10" d="M708.569,297.347
	c12.518,0,24.552,0,36.919,0c0,34.562,0,68.809,0,103.527c-12.176,0-24.333,0-36.919,0
	C708.569,366.523,708.569,332.16,708.569,297.347z"/>
<path fill-rule="evenodd" fill="#E78A3A" stroke="#EAE9E9" stroke-width="4.2141" stroke-miterlimit="10" d="M656.642,351.61
	c0,16.895,0,32.956,0,49.658c-10.973,0-21.663,0.066-32.348-0.14c-0.771-0.014-2.146-2.018-2.157-3.106
	c-0.143-14.448-0.152-28.896,0.037-43.341c0.012-1.036,1.822-2.917,2.827-2.938C635.377,351.525,645.76,351.61,656.642,351.61z"/>
<path fill-rule="evenodd" fill="#E78A3A" stroke="#EAE9E9" stroke-width="4.2141" stroke-miterlimit="10" d="M434.292,360.623
	c-30.44,2.561-60.65,0.617-91.306,1.393c0-29.746,0-59.068,0-88.812c30.281,0,60.616,0,91.306,0
	C434.292,302.317,434.292,331.306,434.292,360.623z"/>
<path fill-rule="evenodd" fill="#E78A3A" stroke="#EAE9E9" stroke-width="4.2141" stroke-miterlimit="10" d="M386.347,207.352
	c30.609,0,60.798,0,91.316,0c0,22.071,0,43.858,0,66.124c-30.267,0-60.576,0-91.316,0
	C386.347,251.646,386.347,229.744,386.347,207.352z"/>
<path fill-rule="evenodd" fill="#E78A3A" stroke="#EAE9E9" stroke-width="4.2141" stroke-miterlimit="10" d="M439.721,297.293
	c22.29,0,44.074,0,66.279,0c0,34.345,0,68.482,0,103.667c-22.399-13.983-44.09-27.526-66.279-41.378
	C439.721,339.522,439.721,318.72,439.721,297.293z"/>
<path fill-rule="evenodd" fill="#E78A3A" stroke="#EAE9E9" stroke-width="4.2141" stroke-miterlimit="10" d="M556.331,358.535
	c-15.08,0-29.673,0-44.66,0c0-20.355,0-40.455,0-60.997c14.743,0,29.458,0,44.66,0C556.331,317.658,556.331,337.877,556.331,358.535
	z"/>
<path fill-rule="evenodd" fill="#E78A3A" stroke="#EAE9E9" stroke-width="4.2141" stroke-miterlimit="10" d="M584.749,401.066
	c-24.523,0-48.679,0-73.208,0c0-12.436,0-24.596,0-37.083c24.429,0,48.587,0,73.208,0
	C584.749,376.184,584.749,388.344,584.749,401.066z"/>
<path fill-rule="evenodd" fill="#E78A3A" stroke="#EAE9E9" stroke-width="4.2141" stroke-miterlimit="10" d="M1138.614,204.348
	c0,45.153,0,89.872,0,135.022c-45.784,0-91.432,0-137.427,0c0-45.028,0-89.857,0-135.022
	C1046.964,204.348,1092.492,204.348,1138.614,204.348z"/>
<path fill-rule="evenodd" fill="#E78A3A" stroke="#EAE9E9" stroke-width="4.2141" stroke-miterlimit="10" d="M1143.729,337.396
	c0-45.044,0-88.87,0-133.038c47.114,0,93.953,0,141.555,0c0,9.086-0.126,18.103,0.052,27.114c0.093,4.574-0.174,7.843-5.041,10.896
	c-13.109,8.226-25.515,17.575-38.174,26.521c-10.479,7.405-20.877,14.933-31.379,22.303c-13.635,9.567-27.315,19.066-41.021,28.53
	C1161.404,325.467,1153.007,331.093,1143.729,337.396z"/>
<path fill-rule="evenodd" fill="#D15C44" stroke="#EAE9E9" stroke-width="4.2141" stroke-miterlimit="10" d="M2030.699,497.192
	c4.365,0,8.472,0,12.926,0c0,22.446,0,44.695,0,67.416c-4.112,0-8.342,0-12.926,0
	C2030.699,542.218,2030.699,519.852,2030.699,497.192z"/>
<path fill-rule="evenodd" fill="#D15C44" stroke="#EAE9E9" stroke-width="4.2141" stroke-miterlimit="10" d="M2030.615,492.016
	c0-19.659,0-38.877,0-58.426c4.365,0,8.472,0,12.973,0c0,19.417,0,38.755,0,58.426
	C2039.346,492.016,2035.237,492.016,2030.615,492.016z"/>
<path fill-rule="evenodd" fill="#D15C44" stroke="#EAE9E9" stroke-width="4.2141" stroke-miterlimit="10" d="M2030.685,569.904
	c4.417,0,8.52,0,12.959,0c0,17.116,0,33.978,0,51.292c-4.172,0-8.397,0-12.959,0
	C2030.685,604.261,2030.685,587.399,2030.685,569.904z"/>
<path fill-rule="evenodd" fill="#BD365A" stroke="#EAEAEA" stroke-width="4.6168" stroke-miterlimit="10" d="M1098.365,956.206
	c0-13.249,0-26.307,0-40.016c7.151,0,14.007-0.188,20.842,0.074c4.048,0.154,5.226-1.384,5.17-5.283
	c-0.181-13.292-0.197-26.588,0.006-39.881c0.064-4.079-1.446-5.27-5.316-5.134c-6.706,0.235-13.422,0.064-20.574,0.064
	c0-12.217,0-24.046,0-36.297c42.82,0,85.635,0,129.627,0c-3.118,5.517-5.983,10.595-8.847,15.673
	c-7.53,13.354-15.135,26.659-22.566,40.068c-12.678,22.885-25.224,45.849-37.936,68.715c-0.669,1.204-2.377,2.612-3.609,2.62
	c-18.508,0.117-37.017,0.019-55.524-0.046C1099.344,956.765,1099.049,956.515,1098.365,956.206z"/>
<path fill-rule="evenodd" fill="#BD365A" stroke="#EAEAEA" stroke-width="4.6168" stroke-miterlimit="10" d="M1087.074,891.229
	c-0.002-5.547,0.092-11.099-0.04-16.64c-0.068-2.851,1.078-3.83,3.863-3.799c8.739,0.109,17.486-0.093,26.219,0.208
	c1.235,0.041,3.411,2.161,3.438,3.361c0.262,11.257,0.244,22.523,0,33.78c-0.022,1.102-2.059,3.062-3.207,3.095
	c-8.901,0.263-17.816,0.099-26.724,0.183c-2.571,0.022-3.626-0.942-3.577-3.544C1087.152,902.326,1087.08,896.774,1087.074,891.229z
	"/>
<path fill-rule="evenodd" fill="#D15C44" stroke="#EAE9E9" stroke-width="4.2141" stroke-miterlimit="10" d="M1370.493,204.811
	c0,11.814,0,23.351,0,35.311c-1.853,0.129-3.48,0.335-5.106,0.338c-19.358,0.021-38.722-0.101-58.082,0.103
	c-4.275,0.045-6.015-0.938-5.837-5.563c0.342-8.739,0.136-17.504,0.084-26.261c-0.013-2.646,0.314-4.499,3.751-4.477
	c21.042,0.117,42.089,0.086,63.131,0.125C1368.921,204.386,1369.41,204.581,1370.493,204.811z"/>
</svg>
